<svg xmlns="http://www.w3.org/2000/svg" viewBox="0 0 274.29 106.6"><defs><style>.cls-1{fill:#afcc37;}.cls-2,.cls-3{fill:#435464;}.cls-3{fill-rule:evenodd;}</style></defs><g id="Layer_2" data-name="Layer 2"><g id="Layer_1-2" data-name="Layer 1"><path class="cls-1" d="M44.85,21.69l9.33-20A2.64,2.64,0,0,1,56.37.11a6.88,6.88,0,0,1,.83,0H71.36L62.09,19.93a2.91,2.91,0,0,1-2.28,1.71c-.21,0-.52.05-.79.05Z"></path><path class="cls-1" d="M65,21.69l9.33-20A2.63,2.63,0,0,1,76.54.11a6.82,6.82,0,0,1,.82,0H91.52L82.25,19.93A2.88,2.88,0,0,1,80,21.64c-.22,0-.52.05-.79.05Z"></path><path class="cls-1" d="M32.07,5.8A9.38,9.38,0,0,1,39.47.17,17.89,17.89,0,0,1,41.55.1h9.57L41.85,20a2.9,2.9,0,0,1-2.28,1.71c-.21,0-.51,0-.79,0H24.61Z"></path><path class="cls-1" d="M60.16,67.2a9.36,9.36,0,0,1-7.41,5.62,14.6,14.6,0,0,1-2.08.08H41.1L50.37,53a2.93,2.93,0,0,1,2.28-1.71c.21,0,.51,0,.79,0H67.61Z"></path><path class="cls-1" d="M52.2,41a9.35,9.35,0,0,1-7.41,5.62,14.48,14.48,0,0,1-2.08.08H33.15l9.27-19.86a2.9,2.9,0,0,1,2.28-1.71c.21,0,.51-.05.79-.05H59.66Z"></path><path class="cls-2" d="M16.65,38.77l5.9-12.63a1.64,1.64,0,0,1,1.38-1,4.05,4.05,0,0,1,.52,0h9L27.54,37.66a1.82,1.82,0,0,1-1.43,1.08c-.14,0-.33,0-.51,0Z"></path><path class="cls-2" d="M8.66,55.87l5.9-12.63a1.64,1.64,0,0,1,1.38-1,4.22,4.22,0,0,1,.53,0h8.94L19.56,54.76a1.87,1.87,0,0,1-1.44,1.08c-.14,0-.33,0-.51,0Z"></path><path class="cls-2" d="M.7,72.9,6.59,60.28a1.7,1.7,0,0,1,1.38-1,4.33,4.33,0,0,1,.53,0h9L11.59,71.79a1.8,1.8,0,0,1-1.44,1.08,3.63,3.63,0,0,1-.5,0Z"></path><path class="cls-2" d="M13.88,72.9l5.9-12.62a1.67,1.67,0,0,1,1.38-1,4.22,4.22,0,0,1,.53,0h9L24.77,71.79a1.78,1.78,0,0,1-1.43,1.08,3.84,3.84,0,0,1-.5,0Z"></path><path class="cls-2" d="M27,72.9l5.9-12.62a1.67,1.67,0,0,1,1.38-1,4.05,4.05,0,0,1,.52,0h9L37.85,71.79a1.8,1.8,0,0,1-1.43,1.08,3.84,3.84,0,0,1-.5,0Z"></path><path class="cls-3" d="M142.11,72.69c-4.42,0-8.53.07-12.63-.07l-1.13,0s-.57-1.09-.72-1.42q-4.74-10.64-9.28-21.34c-.29-.7-.77-1.82-.77-1.82s-1.28,0-2,0c-7.3.08-14.6.1-21.89,0-.87,0-2.36,0-2.36,0l-.93,2.08c-3,7.06-6.24,14-9.32,21.09-.24.57-.74,1.58-.74,1.58s-.94,0-1.57,0c-2-.11-4.09,0-6.49,0,1.27-2.78,2.43-5.32,3.61-7.85q14.61-31.47,29.2-63c.28-.6.92-1.88.92-1.88H109s.64,1.19,1,1.9Q125.48,36,141,70.09C141.33,70.85,141.65,71.62,142.11,72.69ZM114.72,41.54c-3.4-7.84-6.72-15.47-10.18-23.44-3.54,8-6.94,15.67-10.38,23.44Z"></path><path class="cls-3" d="M274.29,72.69c-4.42,0-8.53.07-12.63-.07l-1.13,0s-.57-1.09-.72-1.42q-4.74-10.64-9.27-21.34L249.76,48s-1.28,0-2,0c-7.29.08-14.59.1-21.89,0-.87,0-2.36,0-2.36,0s-.58,1.29-.92,2.08c-3,7.06-6.25,14-9.32,21.09-.25.57-.75,1.58-.75,1.58s-.93,0-1.57,0c-2-.11-4.09,0-6.49,0,1.28-2.78,2.44-5.32,3.62-7.85q14.59-31.47,29.19-63c.28-.6.92-1.88.92-1.88h3.06s.65,1.19,1,1.9q15.46,34.11,31,68.19C273.52,70.85,273.83,71.62,274.29,72.69ZM246.91,41.54c-3.41-7.84-6.73-15.47-10.19-23.44-3.54,8-6.94,15.67-10.38,23.44Z"></path><path class="cls-3" d="M174.92,43c2.83-.78,5.47-1.29,7.94-2.24,10.24-4,15.27-13.89,12.35-24.08-2.27-7.91-11.05-14.86-20.3-15.31-9.53-.47-19.1-.31-28.66-.42a2.48,2.48,0,0,0-.67.19v71.4h12.31v-31l1.69,1.83c8.56,9.34,17.1,18.71,25.72,28,.16.16,1.31,1.2,1.31,1.2l1.55,0c4.4.07,8.78,0,13.17,0h1C193.4,63,183.66,52.49,174.92,43ZM158,37.42v-30c5.36.1,10.75-.74,15.93,1.24,6.59,2.52,10,8.86,9,16.27-1,6.9-6.11,12-13,12.47C166,37.64,162.12,37.42,158,37.42Z"></path><path class="cls-1" d="M11.34,89.49a5.81,5.81,0,0,1,0,8.07A5.89,5.89,0,0,1,7,99.15H2.81v7.29H0V87.9H7A5.89,5.89,0,0,1,11.34,89.49Zm-1.18,4a2.91,2.91,0,0,0-.9-2.28,3.38,3.38,0,0,0-2.38-.82H2.81V96.6H6.88a3.42,3.42,0,0,0,2.38-.82A2.9,2.9,0,0,0,10.16,93.53Z"></path><path class="cls-1" d="M29.9,106.44H26.62l-3.91-7.81H19.2v7.81H16.38V87.9h7.19a5.77,5.77,0,0,1,4.18,1.51,5.18,5.18,0,0,1,1.58,3.91,4.94,4.94,0,0,1-1,3.19,5,5,0,0,1-2.67,1.73Zm-4.24-11a3.09,3.09,0,0,0,0-4.26,3.3,3.3,0,0,0-2.3-.78H19.2v5.8h4.16A3.34,3.34,0,0,0,25.66,95.47Z"></path><path class="cls-1" d="M46.09,95.15c0,.36,0,1,0,2s0,1.66,0,2,0,.88-.09,1.56a6.25,6.25,0,0,1-.26,1.54,9.78,9.78,0,0,1-.52,1.15,5,5,0,0,1-.89,1.18,7,7,0,0,1-9.77,0,4.9,4.9,0,0,1-.88-1.18,10.32,10.32,0,0,1-.54-1.16,5.79,5.79,0,0,1-.27-1.51q-.07-1-.09-1.59c0-.4,0-1.07,0-2s0-1.6,0-2,0-.93.09-1.59a5.71,5.71,0,0,1,.27-1.51,8.91,8.91,0,0,1,.54-1.16,5,5,0,0,1,.88-1.19,7,7,0,0,1,9.77,0,5,5,0,0,1,.89,1.19,9.71,9.71,0,0,1,.52,1.14A6.34,6.34,0,0,1,46,93.59Q46.08,94.63,46.09,95.15Zm-3,5.94a24.43,24.43,0,0,0,.21-3.92,24.52,24.52,0,0,0-.21-3.92,3.57,3.57,0,0,0-.88-1.83,3.9,3.9,0,0,0-5.53,0,3.57,3.57,0,0,0-.88,1.83,24.52,24.52,0,0,0-.21,3.92,24.43,24.43,0,0,0,.21,3.92,3.7,3.7,0,0,0,7.29,0Z"></path><path class="cls-1" d="M61.61,89.49a5.81,5.81,0,0,1,0,8.07,5.89,5.89,0,0,1-4.31,1.59H53.08v7.29H50.27V87.9h7A5.89,5.89,0,0,1,61.61,89.49Zm-1.18,4a2.91,2.91,0,0,0-.9-2.28,3.39,3.39,0,0,0-2.38-.82H53.08V96.6h4.07a3.44,3.44,0,0,0,2.38-.82A2.9,2.9,0,0,0,60.43,93.53Z"></path><path class="cls-1" d="M78.5,106.44H66.65V87.9H78.5v2.53h-9v5.41h7.71v2.5H69.46v5.58h9Z"></path><path class="cls-1" d="M95.88,106.44H92.59l-3.9-7.81H85.17v7.81H82.36V87.9h7.19a5.78,5.78,0,0,1,4.18,1.51,5.18,5.18,0,0,1,1.57,3.91,4.87,4.87,0,0,1-3.7,4.92Zm-4.25-11a3.07,3.07,0,0,0,0-4.26,3.28,3.28,0,0,0-2.29-.78H85.17v5.8h4.17A3.32,3.32,0,0,0,91.63,95.47Z"></path><path class="cls-1" d="M110.8,90.43h-5.11v16h-2.81v-16h-5.1V87.9h13Z"></path><path class="cls-1" d="M125.62,87.9l-5.55,10.91v7.63h-2.81V98.81L111.71,87.9h3.08l3.88,8.15,3.88-8.15Z"></path><path class="cls-1" d="M146,101.16a4.78,4.78,0,0,1-1.85,4,7.56,7.56,0,0,1-4.82,1.46,11,11,0,0,1-3.69-.56,7.47,7.47,0,0,1-2.87-1.89l1.88-1.85a6.41,6.41,0,0,0,4.74,1.77,4.64,4.64,0,0,0,2.82-.74,2.78,2.78,0,0,0,.28-4,3.8,3.8,0,0,0-2-.78l-2.18-.32a6.27,6.27,0,0,1-3.52-1.48,4.63,4.63,0,0,1-1.35-3.54,5.06,5.06,0,0,1,1.66-4,6.54,6.54,0,0,1,4.54-1.5,8.14,8.14,0,0,1,5.75,2.11l-1.8,1.77a5.62,5.62,0,0,0-4-1.43A3.59,3.59,0,0,0,137,91a2.67,2.67,0,0,0-.9,2.08,2.2,2.2,0,0,0,.7,1.72,4,4,0,0,0,2.09.86L141,96a6.85,6.85,0,0,1,3.46,1.38A4.81,4.81,0,0,1,146,101.16Z"></path><path class="cls-1" d="M161.64,106.44H149.79V87.9h11.85v2.53h-9v5.41h7.71v2.5H152.6v5.58h9Z"></path><path class="cls-1" d="M179,106.44h-3.28l-3.91-7.81h-3.51v7.81H165.5V87.9h7.18a5.77,5.77,0,0,1,4.18,1.51,5.15,5.15,0,0,1,1.58,3.91,4.87,4.87,0,0,1-3.7,4.92Zm-4.24-11a3.07,3.07,0,0,0,0-4.26,3.28,3.28,0,0,0-2.29-.78h-4.17v5.8h4.17A3.32,3.32,0,0,0,174.77,95.47Z"></path><path class="cls-1" d="M194.69,87.9l-6.14,18.54h-2.19l-6.1-18.54h2.92l4.27,13.49,4.27-13.49Z"></path><path class="cls-1" d="M200.06,106.44h-2.81V87.9h2.81Z"></path><path class="cls-1" d="M217.51,100.9a6.76,6.76,0,0,1-2.25,4.2,7,7,0,0,1-9.24-.48,4.9,4.9,0,0,1-.88-1.18,10.32,10.32,0,0,1-.54-1.16,5.79,5.79,0,0,1-.27-1.51q-.08-1-.09-1.59c0-.4,0-1.07,0-2s0-1.6,0-2,0-.93.09-1.59a5.71,5.71,0,0,1,.27-1.51,8.91,8.91,0,0,1,.54-1.16,5,5,0,0,1,.88-1.19,7.07,7.07,0,0,1,9.25-.49,6.75,6.75,0,0,1,2.24,4.22h-2.87a4.29,4.29,0,0,0-1.3-2.32,3.9,3.9,0,0,0-5.18.26,3.9,3.9,0,0,0-.9,1.87,23.07,23.07,0,0,0-.22,3.91,23.07,23.07,0,0,0,.22,3.91,3.9,3.9,0,0,0,.9,1.87,3.92,3.92,0,0,0,5.19.26,4.23,4.23,0,0,0,1.32-2.31Z"></path><path class="cls-1" d="M233.11,106.44H221.26V87.9h11.85v2.53h-9v5.41h7.71v2.5h-7.71v5.58h9Z"></path><path class="cls-1" d="M248.55,101.16a4.79,4.79,0,0,1-1.84,4,7.58,7.58,0,0,1-4.82,1.46,11,11,0,0,1-3.7-.56,7.55,7.55,0,0,1-2.87-1.89l1.88-1.85a6.41,6.41,0,0,0,4.74,1.77,4.62,4.62,0,0,0,2.82-.74,2.78,2.78,0,0,0,.28-4,3.8,3.8,0,0,0-2-.78l-2.19-.32a6.3,6.3,0,0,1-3.52-1.48A4.63,4.63,0,0,1,236,93.19a5,5,0,0,1,1.67-4,6.52,6.52,0,0,1,4.53-1.5,8.14,8.14,0,0,1,5.75,2.11l-1.79,1.77a5.67,5.67,0,0,0-4-1.43,3.59,3.59,0,0,0-2.49.81,2.67,2.67,0,0,0-.9,2.08,2.17,2.17,0,0,0,.71,1.72,3.91,3.91,0,0,0,2.08.86l2.11.31A6.85,6.85,0,0,1,247,97.35,4.81,4.81,0,0,1,248.55,101.16Z"></path></g></g></svg>