<svg xmlns="http://www.w3.org/2000/svg" viewBox="0 0 319.65 124.72"><defs><style>.cls-1{fill:#d2466c;}.cls-2,.cls-3{fill:#455464;}.cls-2{fill-rule:evenodd;}</style></defs><g id="Layer_2" data-name="Layer 2"><g id="Layer_1-2" data-name="Layer 1"><path class="cls-1" d="M13.91,104.53a6.87,6.87,0,0,1,0,9.53,7,7,0,0,1-5.08,1.87h-5v8.61H.53V102.66h8.3A7,7,0,0,1,13.91,104.53Zm-1.4,4.77a3.44,3.44,0,0,0-1.06-2.69,4,4,0,0,0-2.81-1H3.85v7.28H8.64a4,4,0,0,0,2.81-1A3.39,3.39,0,0,0,12.51,109.3Z"></path><path class="cls-1" d="M35.8,124.54H31.93l-4.61-9.22H23.18v9.22H19.86V102.66h8.48a6.81,6.81,0,0,1,4.93,1.78,6.11,6.11,0,0,1,1.86,4.61,5.79,5.79,0,0,1-4.36,5.81Zm-5-13a3.22,3.22,0,0,0,1-2.51,3.27,3.27,0,0,0-1-2.52,3.9,3.9,0,0,0-2.71-.92H23.18v6.85h4.91A3.94,3.94,0,0,0,30.8,111.59Z"></path><path class="cls-1" d="M54.9,111.22c0,.42,0,1.21,0,2.38s0,2,0,2.38,0,1-.11,1.84a7.62,7.62,0,0,1-.3,1.82,11.6,11.6,0,0,1-.62,1.35,6,6,0,0,1-1,1.4,8.3,8.3,0,0,1-11.53,0,6,6,0,0,1-1-1.4,10.58,10.58,0,0,1-.63-1.37,7,7,0,0,1-.32-1.78c-.06-.78-.1-1.4-.11-1.88s0-1.26,0-2.36,0-1.9,0-2.37,0-1.09.11-1.87a7,7,0,0,1,.32-1.78,10.58,10.58,0,0,1,.63-1.37,6,6,0,0,1,1-1.4,8.3,8.3,0,0,1,11.53,0,6,6,0,0,1,1,1.4,10.89,10.89,0,0,1,.62,1.35,7.52,7.52,0,0,1,.3,1.81C54.85,110.18,54.89,110.8,54.9,111.22Zm-3.55,7a28.15,28.15,0,0,0,.25-4.62,28.38,28.38,0,0,0-.25-4.63,4.22,4.22,0,0,0-1-2.16,4.61,4.61,0,0,0-6.52,0,4.22,4.22,0,0,0-1,2.16,28.38,28.38,0,0,0-.25,4.63,28.15,28.15,0,0,0,.25,4.62,4.36,4.36,0,0,0,8.6,0Z"></path><path class="cls-1" d="M75.38,113.44a28,28,0,0,1-.34,5.38,7.19,7.19,0,0,1-1.87,3.66,7.67,7.67,0,0,1-5.66,2.06H59.83V102.66h7.68a7.67,7.67,0,0,1,5.66,2.06,6.75,6.75,0,0,1,1.56,2.55,9.74,9.74,0,0,1,.59,2.56q.06,1.07.06,3.06Zm-3.32,0c0-1.22,0-2.15,0-2.78a10.05,10.05,0,0,0-.3-2,3.57,3.57,0,0,0-.82-1.59,4.76,4.76,0,0,0-3.71-1.48h-4v15.92h4a4.8,4.8,0,0,0,3.71-1.48,4.29,4.29,0,0,0,1-2.35A35.18,35.18,0,0,0,72.06,113.44Z"></path><path class="cls-1" d="M95.66,117.16a7.14,7.14,0,0,1-2.25,5.46,8.56,8.56,0,0,1-11.23,0A7.19,7.19,0,0,1,80,117.16v-14.5h3.32V117a4.78,4.78,0,0,0,1.22,3.46,4.91,4.91,0,0,0,6.59,0A4.75,4.75,0,0,0,92.34,117V102.66h3.32Z"></path><path class="cls-1" d="M115.91,118a8,8,0,0,1-2.66,5,7.74,7.74,0,0,1-5.15,1.77,7.85,7.85,0,0,1-5.75-2.33,6,6,0,0,1-1-1.4,10.58,10.58,0,0,1-.63-1.37,7,7,0,0,1-.32-1.78c-.06-.78-.1-1.4-.11-1.88s0-1.26,0-2.36,0-1.9,0-2.37,0-1.09.11-1.87a7,7,0,0,1,.32-1.78,10.58,10.58,0,0,1,.63-1.37,6,6,0,0,1,1-1.4,8.36,8.36,0,0,1,10.91-.58,7.93,7.93,0,0,1,2.65,5h-3.38a5.13,5.13,0,0,0-1.54-2.73,4.16,4.16,0,0,0-2.89-1,4.21,4.21,0,0,0-3.23,1.32,4.62,4.62,0,0,0-1.06,2.21,27.94,27.94,0,0,0-.26,4.61,27.94,27.94,0,0,0,.26,4.61,4.62,4.62,0,0,0,1.06,2.21,4.64,4.64,0,0,0,6.13.31,5.09,5.09,0,0,0,1.56-2.74Z"></path><path class="cls-1" d="M133.76,105.64h-6v18.9h-3.31v-18.9h-6v-3h15.37Z"></path><path class="cls-1" d="M151.21,118.3A5.67,5.67,0,0,1,149,123a8.91,8.91,0,0,1-5.69,1.72,12.94,12.94,0,0,1-4.36-.66,8.86,8.86,0,0,1-3.38-2.23l2.21-2.18a7.57,7.57,0,0,0,5.59,2.09,5.48,5.48,0,0,0,3.34-.88,3.29,3.29,0,0,0,.32-4.74,4.48,4.48,0,0,0-2.4-.92l-2.58-.37a7.38,7.38,0,0,1-4.14-1.75,5.46,5.46,0,0,1-1.6-4.18,6,6,0,0,1,2-4.66,7.71,7.71,0,0,1,5.35-1.76,9.61,9.61,0,0,1,6.79,2.48l-2.12,2.09a6.67,6.67,0,0,0-4.76-1.69,4.23,4.23,0,0,0-2.94,1,3.16,3.16,0,0,0-1.06,2.45,2.59,2.59,0,0,0,.83,2,4.81,4.81,0,0,0,2.46,1l2.49.36a8,8,0,0,1,4.09,1.63A5.69,5.69,0,0,1,151.21,118.3Z"></path><path class="cls-2" d="M165.22,84.93c-5.17,0-10,.07-14.76-.08l-1.32,0s-.66-1.27-.84-1.67q-5.53-12.41-10.84-24.92c-.34-.82-.9-2.13-.9-2.13s-1.5,0-2.38,0c-8.52.1-17.05.12-25.57,0-1,0-2.76,0-2.76,0s-.67,1.51-1.07,2.44c-3.56,8.24-7.3,16.41-10.89,24.64C93.6,83.81,93,85,93,85s-1.1,0-1.84,0c-2.38-.13-4.78,0-7.58,0,1.49-3.25,2.84-6.22,4.22-9.18Q104.89,39,121.94,2.2C122.26,1.5,123,0,123,0h3.59s.75,1.4,1.12,2.23Q145.8,42.07,163.9,81.89c.41.88.78,1.79,1.32,3m-32-36.39c-4-9.16-7.85-18.09-11.9-27.39-4.14,9.35-8.1,18.31-12.13,27.39Z"></path><path class="cls-2" d="M319.65,84.93c-5.16,0-10,.07-14.75-.08l-1.33,0s-.66-1.27-.83-1.67q-5.53-12.41-10.84-24.92c-.34-.82-.91-2.13-.91-2.13s-1.49,0-2.37,0c-8.52.1-17.05.12-25.58,0-1,0-2.75,0-2.75,0s-.68,1.51-1.08,2.44c-3.55,8.24-7.29,16.41-10.89,24.64-.28.66-.87,1.85-.87,1.85s-1.09,0-1.84,0c-2.38-.13-4.77,0-7.58,0,1.5-3.25,2.85-6.22,4.22-9.18Q259.32,39,276.37,2.2c.33-.7,1.07-2.2,1.07-2.2H281s.75,1.4,1.13,2.23q18.08,39.84,36.19,79.66c.41.88.78,1.79,1.31,3m-32-36.39-11.9-27.39L263.63,48.54Z"></path><path class="cls-2" d="M203.55,50.25c3.31-.93,6.4-1.52,9.28-2.63,12-4.65,17.83-16.23,14.43-28.14-2.65-9.23-12.91-17.35-23.71-17.88-11.15-.55-22.33-.37-33.49-.49a3.2,3.2,0,0,0-.79.22V84.76h14.38V48.57l2,2.14c10,10.91,20,21.85,30.05,32.71.18.19,1.54,1.4,1.54,1.4l1.81,0c5.13.09,10.25.06,15.38.06l1.19,0c-10.46-11.35-21.84-23.61-32-34.69m-19.8-6.53V8.64c6.26.11,12.56-.87,18.61,1.44,7.7,2.95,11.72,10.36,10.49,19-1.15,8.06-7.13,14-15.17,14.56-4.52.33-9.09.07-13.93.07"></path><path class="cls-3" d="M18.64,45.32l6.89-14.75a2,2,0,0,1,1.61-1.18,5.72,5.72,0,0,1,.62,0H38.21L31.36,44a2.15,2.15,0,0,1-1.67,1.27c-.16,0-.38,0-.59,0Z"></path><path class="cls-3" d="M9.31,65.3,16.2,50.55a1.94,1.94,0,0,1,1.61-1.18,3.83,3.83,0,0,1,.61,0H28.88L22,64a2.11,2.11,0,0,1-1.67,1.26c-.17,0-.39,0-.59,0Z"></path><path class="cls-3" d="M0,85.2,6.89,70.45A1.94,1.94,0,0,1,8.5,69.27a5.72,5.72,0,0,1,.62,0H19.58L12.73,83.9a2.13,2.13,0,0,1-1.68,1.26,5,5,0,0,1-.58,0Z"></path><path class="cls-3" d="M15.4,85.2l6.9-14.75a1.94,1.94,0,0,1,1.61-1.18,5.66,5.66,0,0,1,.61,0H35L28.13,83.9a2.11,2.11,0,0,1-1.68,1.26,4.8,4.8,0,0,1-.58,0Z"></path><path class="cls-3" d="M30.69,85.2l6.89-14.75a1.94,1.94,0,0,1,1.61-1.18,5.53,5.53,0,0,1,.61,0H50.26L43.41,83.9a2.11,2.11,0,0,1-1.67,1.26,5.14,5.14,0,0,1-.59,0Z"></path><path class="cls-1" d="M51.58,25.34,62.49,2A3.08,3.08,0,0,1,65,.13a9.35,9.35,0,0,1,1,0H82.56L71.72,23.28a3.37,3.37,0,0,1-2.65,2,8.39,8.39,0,0,1-.93.06Z"></path><path class="cls-1" d="M75.15,25.34,86.05,2A3.09,3.09,0,0,1,88.61.13a9.15,9.15,0,0,1,1,0h16.55L95.28,23.28a3.35,3.35,0,0,1-2.65,2,8.22,8.22,0,0,1-.93.06Z"></path><path class="cls-1" d="M36.65,6.78A11,11,0,0,1,45.3.2,21.05,21.05,0,0,1,47.73.11H58.91L48.08,23.32a3.41,3.41,0,0,1-2.66,2c-.25,0-.6.05-.92.05H27.94Z"></path><path class="cls-1" d="M69.47,78.51a10.94,10.94,0,0,1-8.66,6.58,18.32,18.32,0,0,1-2.42.09H47.21L58,62a3.38,3.38,0,0,1,2.66-2,8.2,8.2,0,0,1,.92-.06H78.18Z"></path><path class="cls-1" d="M60.18,47.94a11,11,0,0,1-8.66,6.57,18.68,18.68,0,0,1-2.43.09H37.91l10.84-23.2a3.39,3.39,0,0,1,2.66-2c.25,0,.6-.05.92-.05H68.89Z"></path></g></g></svg>