<svg xmlns="http://www.w3.org/2000/svg" viewBox="0 0 207.97 80.98"><defs><style>.cls-1{fill:#ecaa20;}.cls-2,.cls-3{fill:#435464;}.cls-2{fill-rule:evenodd;}</style></defs><g id="Layer_2" data-name="Layer 2"><g id="Layer_1-2" data-name="Layer 1"><path class="cls-1" d="M33.56,16.48,40.66,1.3A2,2,0,0,1,42.32.08a5.92,5.92,0,0,1,.63,0H53.71l-7.05,15.1a2.2,2.2,0,0,1-1.72,1.3c-.17,0-.4,0-.61,0Z"></path><path class="cls-1" d="M48.89,16.48,56,1.3A2,2,0,0,1,57.65.08a5.92,5.92,0,0,1,.63,0H69L62,15.15a2.2,2.2,0,0,1-1.72,1.3c-.17,0-.4,0-.61,0Z"></path><path class="cls-1" d="M23.85,4.41A7.1,7.1,0,0,1,29.48.13,13.22,13.22,0,0,1,31.06.07h7.27l-7,15.09a2.18,2.18,0,0,1-1.73,1.3,5.16,5.16,0,0,1-.6,0H18.18Z"></path><path class="cls-1" d="M45.2,51.08a7.13,7.13,0,0,1-5.63,4.28,13.38,13.38,0,0,1-1.58.06H30.71l7-15.09A2.2,2.2,0,0,1,39.49,39a5.32,5.32,0,0,1,.6,0H50.86Z"></path><path class="cls-1" d="M39.15,31.19a7.13,7.13,0,0,1-5.63,4.27,11.12,11.12,0,0,1-1.58.06H24.67l7-15.1a2.22,2.22,0,0,1,1.73-1.3c.16,0,.39,0,.6,0H44.82Z"></path><path class="cls-2" d="M107.49,55.25c-3.36,0-6.48.06-9.6,0l-.86,0s-.43-.82-.54-1.08q-3.6-8.07-7-16.22c-.23-.52-.59-1.38-.59-1.38s-1,0-1.55,0c-5.54.06-11.09.08-16.64,0H68.87s-.44,1-.7,1.59c-2.32,5.36-4.75,10.68-7.09,16-.18.43-.56,1.2-.56,1.2s-.71,0-1.2,0c-1.55-.09-3.11,0-4.93,0,1-2.11,1.85-4,2.74-6Q68.25,25.37,79.33,1.43C79.54,1,80,0,80,0h2.33s.49.91.73,1.45q11.76,25.92,23.55,51.83C106.9,53.85,107.14,54.44,107.49,55.25ZM86.68,31.58c-2.59-6-5.12-11.77-7.74-17.82-2.7,6.08-5.28,11.91-7.9,17.82Z"></path><path class="cls-2" d="M208,55.25c-3.36,0-6.48.06-9.6,0l-.86,0s-.43-.82-.54-1.08c-2.4-5.38-4.77-10.78-7.06-16.22l-.58-1.38s-1,0-1.55,0c-5.54.06-11.09.08-16.64,0h-1.79s-.44,1-.7,1.59c-2.31,5.36-4.75,10.68-7.09,16-.18.43-.56,1.2-.56,1.2s-.72,0-1.2,0c-1.55-.09-3.11,0-4.93,0,1-2.11,1.85-4,2.75-6q11.1-23.92,22.19-47.86c.21-.45.7-1.43.7-1.43h2.33s.48.91.73,1.45q11.76,25.92,23.55,51.83C207.38,53.85,207.62,54.44,208,55.25ZM187.16,31.58c-2.6-6-5.12-11.77-7.75-17.82l-7.89,17.82Z"></path><path class="cls-2" d="M132.44,32.69c2.15-.6,4.16-1,6-1.71,7.79-3,11.6-10.55,9.39-18.31-1.73-6-8.4-11.29-15.43-11.63C125.18.69,117.91.8,110.64.72a2.35,2.35,0,0,0-.51.14V55.15h9.36V31.6L120.77,33c6.51,7.1,13,14.22,19.56,21.28.11.13,1,.91,1,.91l1.17,0c3.34.06,6.68,0,10,0h.77C146.48,47.87,139.08,39.9,132.44,32.69Zm-12.89-4.25V5.62c4.08.08,8.18-.57,12.11.94,5,1.91,7.63,6.74,6.82,12.36a10.68,10.68,0,0,1-9.86,9.48C125.67,28.62,122.7,28.44,119.55,28.44Z"></path><path class="cls-3" d="M12.13,29.49l4.48-9.6a1.26,1.26,0,0,1,1.05-.77l.4,0h6.8l-4.45,9.54a1.4,1.4,0,0,1-1.09.82c-.11,0-.25,0-.39,0Z"></path><path class="cls-3" d="M6.05,42.48l4.49-9.6a1.26,1.26,0,0,1,1.05-.76l.4,0h6.8l-4.45,9.54a1.42,1.42,0,0,1-1.09.82l-.39,0Z"></path><path class="cls-3" d="M0,55.43l4.48-9.6a1.3,1.3,0,0,1,1-.77h7.21L8.28,54.59a1.41,1.41,0,0,1-1.09.82l-.38,0Z"></path><path class="cls-3" d="M10,55.43l4.49-9.6a1.28,1.28,0,0,1,1.05-.77h7.2L18.3,54.59a1.39,1.39,0,0,1-1.09.82l-.38,0Z"></path><path class="cls-3" d="M20,55.43l4.48-9.6a1.28,1.28,0,0,1,1.05-.77h7.2l-4.45,9.54a1.42,1.42,0,0,1-1.09.82l-.39,0Z"></path><path class="cls-1" d="M0,80.86V66.76H9v1.92H2.14V72.8H8v1.9H2.14v4.24H9v1.92Z"></path><path class="cls-1" d="M11.94,80.86V66.76h2.14V78.94h6.79v1.92Z"></path><path class="cls-1" d="M23.3,80.86V66.76h9v1.92H25.44V72.8H31.3v1.9H25.44v4.24h6.87v1.92Z"></path><path class="cls-1" d="M39.8,81a5.13,5.13,0,0,1-3.71-1.5c-1.38-1.39-1.36-3-1.36-5.67s0-4.27,1.36-5.66a5.14,5.14,0,0,1,3.71-1.51,4.86,4.86,0,0,1,5,4.34H42.65a2.82,2.82,0,0,0-2.85-2.41,2.79,2.79,0,0,0-2.08.85c-.69.75-.85,1.56-.85,4.39s.16,3.65.85,4.4a2.93,2.93,0,0,0,5-1.57h2.16A4.87,4.87,0,0,1,39.8,81Z"></path><path class="cls-1" d="M52.05,68.68V80.86H49.91V68.68H46V66.76h9.91v1.92Z"></path><path class="cls-1" d="M66.15,80.86l-3-5.94H60.51v5.94H58.37V66.76h5.46a4,4,0,0,1,4.38,4.12,3.7,3.7,0,0,1-2.81,3.74l3.25,6.24ZM63.68,68.68H60.51V73.1h3.17a2.22,2.22,0,1,0,0-4.42Z"></path><path class="cls-1" d="M71.34,80.86V66.76h2.14v14.1Z"></path><path class="cls-1" d="M81.71,81a5.11,5.11,0,0,1-3.7-1.5c-1.39-1.39-1.37-3-1.37-5.67s0-4.27,1.37-5.66a5.12,5.12,0,0,1,3.7-1.51,4.85,4.85,0,0,1,5,4.34H84.57a2.83,2.83,0,0,0-2.86-2.41,2.77,2.77,0,0,0-2.07.85c-.7.75-.86,1.56-.86,4.39s.16,3.65.86,4.4a2.81,2.81,0,0,0,2.07.85,2.85,2.85,0,0,0,2.88-2.42h2.15A4.86,4.86,0,0,1,81.71,81Z"></path><path class="cls-1" d="M97.49,80.86l-1-2.83H91l-1,2.83H87.71l5.17-14.1H94.6l5.17,14.1ZM93.79,70l-2.2,6.26h4.34Z"></path><path class="cls-1" d="M101.77,80.86V66.76h2.14V78.94h6.79v1.92Z"></path></g></g></svg>