<svg xmlns="http://www.w3.org/2000/svg" viewBox="0 0 340.14 132.23"><defs><style>.cls-1{fill:#64b1bb;}.cls-2,.cls-3{fill:#435464;}.cls-2{fill-rule:evenodd;}</style></defs><g id="Layer_2" data-name="Layer 2"><g id="Layer_1-2" data-name="Layer 1"><path class="cls-1" d="M55,27,66.55,2.12a3.28,3.28,0,0,1,2.71-2c.27,0,.69-.05,1-.05H87.9L76.37,24.77a3.55,3.55,0,0,1-2.82,2.12,7.31,7.31,0,0,1-1,.07Z"></path><path class="cls-1" d="M80,27,91.62,2.12a3.28,3.28,0,0,1,2.72-2c.26,0,.68-.05,1-.05H113L101.44,24.77a3.56,3.56,0,0,1-2.83,2.12,7,7,0,0,1-1,.07Z"></path><path class="cls-1" d="M39.06,7.22c1.94-4,5.08-6.47,9.21-7a19.73,19.73,0,0,1,2.58-.1h11.9L51.22,24.81a3.58,3.58,0,0,1-2.83,2.12,9.4,9.4,0,0,1-1,.06H29.79Z"></path><path class="cls-1" d="M74,83.53c-1.94,4-5.08,6.46-9.21,7a21.06,21.06,0,0,1-2.58.09H50.29L61.82,65.93a3.59,3.59,0,0,1,2.82-2.12,9.4,9.4,0,0,1,1-.06H83.24Z"></path><path class="cls-1" d="M64.09,51a11.66,11.66,0,0,1-9.21,7,19.87,19.87,0,0,1-2.58.1H40.4L51.93,33.4a3.61,3.61,0,0,1,2.83-2.13c.26,0,.64-.06,1-.06H73.36Z"></path><path class="cls-2" d="M175.84,90.36c-5.49,0-10.6.08-15.7-.09l-1.41,0s-.7-1.36-.88-1.77Q152,75.27,146.31,62c-.36-.87-1-2.27-1-2.27s-1.59,0-2.52,0c-9.07.11-18.14.13-27.21,0-1.08,0-2.94,0-2.94,0s-.71,1.6-1.14,2.59C107.75,71,103.78,79.71,100,88.47c-.3.7-.92,2-.92,2s-1.17,0-2,0c-2.53-.14-5.08,0-8.06,0,1.58-3.46,3-6.62,4.48-9.76Q111.66,41.47,129.8,2.34c.34-.74,1.13-2.34,1.13-2.34h3.81s.8,1.49,1.2,2.37q19.23,42.39,38.5,84.75C174.87,88.06,175.27,89,175.84,90.36Zm-34-38.72c-4.23-9.75-8.36-19.24-12.66-29.14-4.4,10-8.62,19.48-12.9,29.14Z"></path><path class="cls-2" d="M340.14,90.36c-5.49,0-10.59.08-15.69-.09l-1.41,0s-.7-1.36-.89-1.77Q316.26,75.27,310.62,62l-1-2.27s-1.59,0-2.52,0c-9.07.11-18.14.13-27.21,0-1.08,0-2.93,0-2.93,0s-.73,1.6-1.15,2.59c-3.78,8.77-7.76,17.46-11.58,26.22-.31.7-.93,2-.93,2s-1.16,0-2,0c-2.53-.14-5.08,0-8.06,0,1.59-3.46,3-6.62,4.49-9.76Q276,41.47,294.1,2.34c.34-.74,1.13-2.34,1.13-2.34H299s.8,1.49,1.2,2.37q19.23,42.39,38.51,84.75C339.18,88.06,339.57,89,340.14,90.36Zm-34-38.72L293.45,22.5c-4.41,10-8.63,19.48-12.9,29.14Z"></path><path class="cls-2" d="M216.63,53.46c3.52-1,6.8-1.61,9.87-2.8,12.73-4.94,19-17.26,15.34-29.93-2.81-9.82-13.73-18.46-25.22-19-11.86-.58-23.75-.39-35.63-.52a3.86,3.86,0,0,0-.84.23V90.17h15.3V51.67L197.56,54c10.64,11.61,21.25,23.25,32,34.8.19.2,1.63,1.49,1.63,1.49l1.93.05c5.46.09,10.91,0,16.37.06l1.26,0C239.6,78.29,227.49,65.25,216.63,53.46Zm-21.07-7V9.19c6.66.12,13.37-.92,19.8,1.53,8.19,3.14,12.47,11,11.16,20.23-1.23,8.58-7.59,14.88-16.14,15.49C205.57,46.79,200.71,46.51,195.56,46.51Z"></path><path class="cls-3" d="M19.89,48.22l7.34-15.7a2.09,2.09,0,0,1,1.71-1.26l.65,0H40.72L33.43,46.84a2.27,2.27,0,0,1-1.78,1.34,5.54,5.54,0,0,1-.62,0Z"></path><path class="cls-3" d="M10,69.47,17.3,53.78A2.05,2.05,0,0,1,19,52.52a6.52,6.52,0,0,1,.66,0H30.79l-7.28,15.6a2.28,2.28,0,0,1-1.79,1.34,5.54,5.54,0,0,1-.62,0Z"></path><path class="cls-3" d="M.07,90.64,7.4,75a2.09,2.09,0,0,1,1.71-1.26c.17,0,.44,0,.66,0H20.89L13.61,89.26a2.26,2.26,0,0,1-1.79,1.34,5.54,5.54,0,0,1-.62,0Z"></path><path class="cls-3" d="M16.46,90.64,23.79,75a2.07,2.07,0,0,1,1.72-1.26c.17,0,.43,0,.65,0H37.29L30,89.26a2.26,2.26,0,0,1-1.79,1.34,5.54,5.54,0,0,1-.62,0Z"></path><path class="cls-3" d="M32.71,90.64,40.05,75a2.07,2.07,0,0,1,1.72-1.26,6.22,6.22,0,0,1,.64,0H53.54L46.25,89.26a2.23,2.23,0,0,1-1.78,1.34,5.54,5.54,0,0,1-.62,0Z"></path><path class="cls-1" d="M14.76,112.09H3.5v7h9.6v3.15H3.5V132H0V108.94H14.76Z"></path><path class="cls-1" d="M22.47,132H19V108.94h3.5Z"></path><path class="cls-1" d="M45.34,132H41.25l-4.86-9.73H32V132H28.5V108.94h9a7.22,7.22,0,0,1,5.2,1.88,6.45,6.45,0,0,1,2,4.87,6.08,6.08,0,0,1-4.6,6.13Zm-5.29-13.67a3.36,3.36,0,0,0,1.07-2.64,3.44,3.44,0,0,0-1.07-2.66,4.07,4.07,0,0,0-2.85-1H32v7.23H37.2A4.11,4.11,0,0,0,40.05,118.36Z"></path><path class="cls-1" d="M64.5,132H49.75V108.94H64.5v3.15H53.25v6.74h9.6V122h-9.6v6.94H64.5Z"></path><path class="cls-1" d="M96.25,132H92l-1.88-2.27a9.42,9.42,0,0,1-6.39,2.47,7.7,7.7,0,0,1-5.51-1.85,6.6,6.6,0,0,1-2-5,5.57,5.57,0,0,1,1.22-3.65,14.77,14.77,0,0,1,3.36-2.87,16.73,16.73,0,0,1-1.12-1.38,9,9,0,0,1-.85-1.57,5,5,0,0,1-.43-2A4.78,4.78,0,0,1,80,110.19a5.79,5.79,0,0,1,4.09-1.44,5.43,5.43,0,0,1,4,1.46A4.87,4.87,0,0,1,87.1,118l-1.68,1.17,4.86,5.8a8.08,8.08,0,0,0,1.24-4.63h3.17c-.11,3.07-.87,5.43-2.3,7.1Zm-8.11-4.6-5.48-6.52a16.07,16.07,0,0,0-1.59,1.2,5.3,5.3,0,0,0-1,1.33,3.9,3.9,0,0,0,.7,4.67,4.25,4.25,0,0,0,3,1.1A6.5,6.5,0,0,0,88.14,127.43Zm-1.75-13.49a2.26,2.26,0,0,0-.65-1.64,2.25,2.25,0,0,0-3.92,1.6c0,.74.59,1.8,1.78,3.18l1.1-.74A3.08,3.08,0,0,0,86.39,113.94Z"></path><path class="cls-1" d="M123,125.45a6,6,0,0,1-2.3,5,9.43,9.43,0,0,1-6,1.82,13.84,13.84,0,0,1-4.61-.7,9.57,9.57,0,0,1-3.56-2.35l2.33-2.3a8,8,0,0,0,5.9,2.2,5.85,5.85,0,0,0,3.52-.92,3.07,3.07,0,0,0,1.25-2.61,3,3,0,0,0-.91-2.4,4.78,4.78,0,0,0-2.53-1l-2.72-.39a7.82,7.82,0,0,1-4.38-1.84,5.79,5.79,0,0,1-1.69-4.41,6.32,6.32,0,0,1,2.08-4.92,8.13,8.13,0,0,1,5.64-1.86,10.11,10.11,0,0,1,7.17,2.62l-2.24,2.21a7,7,0,0,0-5-1.78,4.46,4.46,0,0,0-3.1,1,3.33,3.33,0,0,0-1.12,2.6,2.71,2.71,0,0,0,.88,2.14,5,5,0,0,0,2.59,1.07l2.63.38a8.48,8.48,0,0,1,4.31,1.72A6,6,0,0,1,123,125.45Z"></path><path class="cls-1" d="M142.43,132H127.67V108.94h14.76v3.15H131.18v6.74h9.59V122h-9.59v6.94h11.25Z"></path><path class="cls-1" d="M162.92,125.12a8.44,8.44,0,0,1-2.8,5.24,8.13,8.13,0,0,1-5.43,1.87,8.23,8.23,0,0,1-6.07-2.47,6.14,6.14,0,0,1-1.1-1.47,13.66,13.66,0,0,1-.67-1.45,7.57,7.57,0,0,1-.34-1.88c-.06-.82-.1-1.48-.11-2s0-1.33,0-2.49,0-2,0-2.5,0-1.16.11-2a7.57,7.57,0,0,1,.34-1.88,14.56,14.56,0,0,1,.67-1.44,6.39,6.39,0,0,1,1.1-1.48,8.26,8.26,0,0,1,6.07-2.46,8.14,8.14,0,0,1,5.44,1.85,8.42,8.42,0,0,1,2.79,5.25h-3.56a5.47,5.47,0,0,0-1.62-2.89,4.87,4.87,0,0,0-6.46.33,4.84,4.84,0,0,0-1.12,2.33,29.56,29.56,0,0,0-.27,4.87,29.5,29.5,0,0,0,.27,4.86,4.92,4.92,0,0,0,1.12,2.34,4.89,4.89,0,0,0,6.47.32,5.29,5.29,0,0,0,1.64-2.89Z"></path><path class="cls-1" d="M183.81,124.25a7.55,7.55,0,0,1-2.37,5.76,9,9,0,0,1-11.85,0,7.57,7.57,0,0,1-2.35-5.76V108.94h3.5v15.15a5,5,0,0,0,1.3,3.65,5.18,5.18,0,0,0,7,0,5,5,0,0,0,1.32-3.65V108.94h3.5Z"></path><path class="cls-1" d="M206.31,132h-4.08l-4.87-9.73H193V132h-3.51V108.94h9a7.24,7.24,0,0,1,5.21,1.88,6.45,6.45,0,0,1,2,4.87,6.18,6.18,0,0,1-1.28,4,6.25,6.25,0,0,1-3.32,2.16ZM201,118.36a3.36,3.36,0,0,0,1.07-2.64,3.44,3.44,0,0,0-1.07-2.66,4.1,4.1,0,0,0-2.86-1H193v7.23h5.18A4.14,4.14,0,0,0,201,118.36Z"></path><path class="cls-1" d="M214.23,132h-3.51V108.94h3.51Z"></path><path class="cls-1" d="M234.43,112.09h-6.36V132h-3.5V112.09h-6.36v-3.15h16.22Z"></path><path class="cls-1" d="M252.88,108.94,246,122.53V132h-3.51v-9.5l-6.9-13.59h3.82l4.83,10.15,4.84-10.15Z"></path></g></g></svg>